# xmcd
#
# Track frame offsets: 
#        150
#        17124
#        28030
#        38802
#        55355
#        73224
#        89308
#        100662
#        111823
#        124435
#        138321
#        149662
#        163466
#        180387
#
# Disc length: 2551 seconds
#
# Revision: 0
# Processed by: cddbd v1.5.2PL0 Copyright (c) Steve Scherf et al.
# Submitted via: ExactAudioCopy v1.0b3
#
DISCID=cf09f50e
DTITLE=Freddie King - Freddie King Is A Blues Master
DYEAR=1969
DGENRE=Blues
TTITLE0=Play It Cool
TTITLE1=That Will Never Do
TTITLE2=It's Too Late, She's Gone
TTITLE3=Blue Shadows
TTITLE4=Today I Sing The Blues
TTITLE5=Gett Out Of My Live. Woman
TTITLE6=Hideaway
TTITLE7=Funky
TTITLE8=Hot Tomato
TTITLE9=Wide Open
TTITLE10=Sweet Thing
TTITLE11=Let Me Down Easy
TTITLE12=Play It Cool (rare mono A-side)
TTITLE13=Funky (rare mono B-side)
EXTD=
EXTT0=
EXTT1=
EXTT2=
EXTT3=
EXTT4=
EXTT5=
EXTT6=
EXTT7=
EXTT8=
EXTT9=
EXTT10=
EXTT11=
EXTT12=
EXTT13=
PLAYORDER=
